# xmcd
#
# Track frame offsets:
#	150
#	34816
#	63802
#	84226
#	117938
#	142971
#	177152
#	202750
# Disc length: 3041 seconds
# Revision: 1
# Processed by: cddbd v1.5.1PL2 Copyright (c) Steve Scherf et al.
#
# Submitted via: libkcddb 0.21
#
DISCID=5c0bdf08
DTITLE=HENRI PEIPMAN - VIRMALISED - JAZZ FOORUM - FEAT: BRIAN MELVIN
DYEAR=2005
DGENRE=Jazz
TTITLE0=HENRI PEIPMAN /KAHETSUS - IF ONLY
TTITLE1=HENRI PEIPMAN - ELVIN
TTITLE2=HENRI PEIPMAN - BLUE NOTE
TTITLE3=HENRI PEIPMAN - IGATSUS - LONGING
TTITLE4=HENRI PEIPMAN - VIRMALISED
TTITLE5=HENRI PEIPMAN - BLUES
TTITLE6=HENRI PEIPMAN - INNER MAN
TTITLE7=HENRI PEIPMAN - TÄNUAVALDUS - THANKSGIVING
EXTD=YEAR: 2005
EXTT0=
EXTT1=
EXTT2=
EXTT3=
EXTT4=
EXTT5=
EXTT6=
EXTT7=
PLAYORDER=
